<svg width="92" height="92" viewBox="0 0 92 92" fill="none" xmlns="http://www.w3.org/2000/svg">
<path d="M46 0C39.9592 0 33.9775 1.18983 28.3966 3.50154C22.8156 5.81326 17.7446 9.20159 13.4731 13.4731C4.84641 22.0998 0 33.8 0 46C0 58.2 4.84641 69.9002 13.4731 78.5269C17.7446 82.7984 22.8156 86.1867 28.3966 88.4985C33.9775 90.8102 39.9592 92 46 92C58.2 92 69.9002 87.1536 78.5269 78.5269C87.1536 69.9002 92 58.2 92 46C92 40.664 91.034 35.374 89.194 30.406L81.834 37.766C82.478 40.48 82.8 43.24 82.8 46C82.8 55.76 78.9229 65.1202 72.0215 72.0215C65.1202 78.9229 55.76 82.8 46 82.8C36.24 82.8 26.8798 78.9229 19.9785 72.0215C13.0771 65.1202 9.2 55.76 9.2 46C9.2 36.24 13.0771 26.8798 19.9785 19.9785C26.8798 13.0771 36.24 9.2 46 9.2C48.76 9.2 51.52 9.522 54.234 10.166L61.64 2.76C56.626 0.966 51.336 0 46 0ZM78.2 0L59.8 18.4V25.3L48.07 37.03C47.38 36.8 46.69 36.8 46 36.8C43.56 36.8 41.22 37.7693 39.4946 39.4946C37.7693 41.22 36.8 43.56 36.8 46C36.8 48.44 37.7693 50.78 39.4946 52.5054C41.22 54.2307 43.56 55.2 46 55.2C48.44 55.2 50.78 54.2307 52.5054 52.5054C54.2307 50.78 55.2 48.44 55.2 46C55.2 45.31 55.2 44.62 54.97 43.93L66.7 32.2H73.6L92 13.8H78.2V0ZM46 18.4C38.68 18.4 31.6599 21.3078 26.4839 26.4839C21.3078 31.6599 18.4 38.68 18.4 46C18.4 53.32 21.3078 60.3401 26.4839 65.5161C31.6599 70.6922 38.68 73.6 46 73.6C53.32 73.6 60.3401 70.6922 65.5161 65.5161C70.6922 60.3401 73.6 53.32 73.6 46H64.4C64.4 50.88 62.4614 55.5601 59.0108 59.0108C55.5601 62.4614 50.88 64.4 46 64.4C41.12 64.4 36.4399 62.4614 32.9892 59.0108C29.5386 55.5601 27.6 50.88 27.6 46C27.6 41.12 29.5386 36.4399 32.9892 32.9892C36.4399 29.5386 41.12 27.6 46 27.6V18.4Z" fill="#0d8460"/>
</svg>
