<svg width="87" height="72" viewBox="0 0 87 72" fill="none" xmlns="http://www.w3.org/2000/svg">
<path d="M78.4364 55.4055V8.34364H7.84364V55.4055H78.4364ZM78.4364 0.5C80.5166 0.5 82.5117 1.32638 83.9826 2.79735C85.4536 4.26831 86.28 6.26337 86.28 8.34364V55.4055C86.28 57.4857 85.4536 59.4808 83.9826 60.9517C82.5117 62.4227 80.5166 63.2491 78.4364 63.2491H58.8273V71.0927H27.4527V63.2491H7.84364C5.76337 63.2491 3.76831 62.4227 2.29735 60.9517C0.826381 59.4808 0 57.4857 0 55.4055V8.34364C0 6.26337 0.826381 4.26831 2.29735 2.79735C3.76831 1.32638 5.76337 0.5 7.84364 0.5H78.4364ZM15.6873 16.1873H39.2182V31.8745H15.6873V16.1873ZM15.6873 39.7182H39.2182V47.5618H15.6873V39.7182ZM47.0618 16.1873H70.5927V24.0309H47.0618V16.1873ZM47.0618 31.8745H70.5927V47.5618H47.0618V31.8745Z" fill="#54be73" />
</svg>
