<svg width="87" height="60" viewBox="0 0 87 60" fill="none" xmlns="http://www.w3.org/2000/svg">
<path d="M70.2078 0.5C67.3023 3.28131 63.8081 5.46855 59.9359 6.86191C55.8962 7.57479 44.717 2.39021 39.2084 7.6828C38.2903 8.6009 37.1561 9.519 35.968 10.4371C33.3757 9.30298 29.3793 7.57479 26.4629 5.9006C23.5466 4.22641 16.2018 0.5 16.2018 0.5L0 19.4021C0 19.4021 3.99644 24.8027 6.48072 28.3671C8.1009 30.7434 10.0991 34.3618 11.3953 36.792L9.55906 38.9523C9.24583 39.5733 9.05681 40.3024 9.05681 41.0747C9.05681 42.3439 9.55366 43.4996 10.3692 44.3529C11.1144 44.9091 12.0487 45.244 13.0695 45.244C14.0902 45.244 15.0245 44.9091 15.7806 44.3421C15.2729 44.9307 14.9759 45.6868 14.9759 46.5131C14.9759 47.5554 15.4511 48.4843 16.1964 49.1C16.9741 49.5591 17.9084 49.8291 18.9021 49.8291C19.8958 49.8291 20.8301 49.5591 21.6294 49.0892C21.0245 49.8399 20.6735 50.7796 20.6735 51.8057C20.6735 52.8318 21.0245 53.7715 21.6132 54.5168C22.1479 54.7058 22.7689 54.8192 23.417 54.8192C24.5349 54.8192 25.5718 54.479 26.4305 53.9011C26.1983 54.4142 26.0795 54.9975 26.0795 55.6131C26.0795 56.8769 26.598 58.0164 27.4405 58.8265C28.1425 59.1451 28.9688 59.3287 29.8329 59.3287C31.0535 59.3287 32.193 58.9615 33.1327 58.3296L35.9194 55.8076C38.4685 58.3458 41.9843 59.9174 45.8673 59.9174C45.9753 59.9174 46.0887 59.9174 46.1967 59.912C48.8646 59.6852 51.1005 57.9894 52.105 55.6401C52.8935 55.9426 53.79 56.1478 54.7405 56.1478C56.015 56.1478 57.1978 55.7806 58.1969 55.1487C61.3562 53.0587 60.6001 51.4385 60.6001 51.4385C61.2752 51.7355 62.0583 51.9083 62.8846 51.9083C64.6182 51.9083 66.179 51.1414 67.2375 49.9317C68.188 48.9542 68.7659 47.6256 68.7659 46.1675C68.7659 45.1414 68.4796 44.1855 67.9828 43.37C68.026 43.397 68.0638 43.397 68.0962 43.397C70.3698 43.397 72.3464 42.144 73.378 40.297C73.7452 39.3735 73.945 38.3366 73.945 37.2565C73.945 35.4095 73.351 33.6975 72.3464 32.3041L72.3627 32.3311C76.7911 31.467 76.6291 29.2528 78.7894 26.0124C80.8632 23.3445 83.3907 21.1411 86.28 19.4885L70.2078 0.5ZM69.9378 38.6282C67.5615 41.0045 65.7253 39.9784 61.6749 36.9C57.6244 33.8217 49.5775 28.0431 49.5775 28.0431C49.907 29.6903 50.6684 31.1214 51.7432 32.2609C53.466 34.1997 58.5965 38.6282 61.0268 40.8965C62.539 42.3006 66.4274 45.109 64.1591 47.2692C61.8909 49.4294 60.1087 47.2692 56.3823 44.2449C52.6559 41.2205 44.3389 33.7677 44.3389 33.7677C44.3335 33.8649 44.3281 33.9729 44.3281 34.0863C44.3281 35.4797 44.8898 36.738 45.7971 37.6561C46.7152 38.7363 51.8458 43.7048 54.006 45.9731C56.1662 48.2413 58.0565 49.5915 56.2203 51.3737C54.3841 53.1559 50.6576 50.3475 48.6054 48.2413C45.4191 45.163 39.1003 39.4383 39.1003 39.4383C39.0949 39.5247 39.0949 39.622 39.0949 39.7246C39.0949 41.2583 39.6242 42.6625 40.5153 43.775C42.0707 45.8164 45.095 48.4627 46.9312 50.515C48.7674 52.5672 49.8475 54.2954 46.9312 55.9156C44.0149 57.5357 39.6944 53.5393 37.8042 51.5951V51.5843C37.8042 51.028 37.599 50.5204 37.2641 50.1315C36.4055 49.3376 35.2443 48.8462 33.9752 48.8462C33.4135 48.8462 32.8735 48.9434 32.3712 49.1162C33.0625 48.5005 33.4729 47.6364 33.4729 46.6751C33.4729 45.7138 33.0625 44.8497 32.4036 44.2449C31.7231 43.7318 30.8698 43.424 29.9463 43.424C29.0228 43.424 28.1641 43.7318 27.4783 44.2503C28.1101 43.64 28.499 42.8029 28.499 41.8686C28.499 40.7183 27.9103 39.7084 27.0192 39.1197C26.1929 38.5958 25.2046 38.2934 24.1461 38.2934C22.8283 38.2934 21.6186 38.7687 20.6789 39.5517C21.192 38.9361 21.4944 38.1476 21.4944 37.2835C21.4944 36.2304 21.0353 35.2853 20.3117 34.6318C19.3504 33.7407 18.0596 33.1952 16.6447 33.1952C15.6455 33.1952 14.7112 33.4653 13.9065 33.9405L10.3151 27.8756C7.83087 23.9332 4.91455 19.8288 4.91455 19.8288L17.2279 4.86909C17.2279 4.86909 21.6024 7.56939 25.2208 9.62162C27.003 10.6477 30.0813 11.9979 32.4036 13.078C28.7312 15.8323 25.6529 18.4786 26.571 20.3148C28.1749 21.4705 30.1786 22.1672 32.3442 22.1672C34.3748 22.1672 36.265 21.5569 37.842 20.5092C39.8564 19.1537 42.3785 18.3328 45.095 18.3328C46.969 18.3328 48.7512 18.7216 50.366 19.4291C53.3579 21.4489 58.8665 26.4175 63.8891 29.5498C70.2078 34.1403 71.4499 37.1107 69.9378 38.6228V38.6282Z" fill="#0D8460"/>
</svg>
