<svg width="25" height="25" viewBox="0 0 25 25" fill="none" xmlns="http://www.w3.org/2000/svg">
<path d="M21.36 6.12C22.4646 6.12 23.36 5.22456 23.36 4.12C23.36 3.01543 22.4646 2.12 21.36 2.12C20.2554 2.12 19.36 3.01543 19.36 4.12C19.36 5.22456 20.2554 6.12 21.36 6.12Z" fill="#24DB8E"/>
<path d="M24.37 14.12H22.37V9.12H18.99L14.69 4.82999L16.1 3.41L19.81 7.12H22.4C22.9304 7.12 23.4392 7.33071 23.8142 7.70578C24.1893 8.08085 24.4 8.58956 24.4 9.12L24.37 14.12Z" fill="#24DB8E"/>
<path d="M23.36 20.12H21.36V14.12H20.36V20.12H18.36V12.12H23.36V20.12Z" fill="#24DB8E"/>
<path d="M23.36 8.12H18.36V14.12H23.36V8.12Z" fill="#24DB8E"/>
<path d="M6.37 24.12V22.12C6.37 21.5896 6.15928 21.0809 5.78421 20.7058C5.40914 20.3307 4.90043 20.12 4.37 20.12H2.37C1.83956 20.12 1.33085 20.3307 0.95578 20.7058C0.580707 21.0809 0.369995 21.5896 0.369995 22.12V24.12H6.37Z" fill="#24DB8E"/>
<path d="M3.35999 19.12C4.46455 19.12 5.35999 18.2246 5.35999 17.12C5.35999 16.0154 4.46455 15.12 3.35999 15.12C2.25542 15.12 1.35999 16.0154 1.35999 17.12C1.35999 18.2246 2.25542 19.12 3.35999 19.12Z" fill="#24DB8E"/>
<path d="M13.37 24.12V22.12C13.37 21.5896 13.1593 21.0809 12.7842 20.7058C12.4091 20.3307 11.9004 20.12 11.37 20.12H9.37C8.83956 20.12 8.33085 20.3307 7.95578 20.7058C7.58071 21.0809 7.37 21.5896 7.37 22.12V24.12H13.37Z" fill="#24DB8E"/>
<path d="M10.36 19.12C11.4646 19.12 12.36 18.2246 12.36 17.12C12.36 16.0154 11.4646 15.12 10.36 15.12C9.25542 15.12 8.35999 16.0154 8.35999 17.12C8.35999 18.2246 9.25542 19.12 10.36 19.12Z" fill="#24DB8E"/>
<path d="M24.36 21.12H14.36V23.12H24.36V21.12Z" fill="#24DB8E"/>
<path d="M16.36 14.12H0.359985V0.119995H17.36V2.12H2.35999V12.12H16.36V14.12Z" fill="#24DB8E"/>
</svg>
