<svg width="17" height="22" viewBox="0 0 17 22" fill="none" xmlns="http://www.w3.org/2000/svg">
<path d="M8.81998 21.89L8.06 21C7.32 20.14 0.829987 12.47 0.829987 8.34998C0.829987 6.22824 1.67284 4.19341 3.17313 2.69312C4.67342 1.19282 6.70825 0.349976 8.82999 0.349976C10.9517 0.349976 12.9866 1.19282 14.4868 2.69312C15.9871 4.19341 16.83 6.22824 16.83 8.34998C16.83 12.47 10.33 20.14 9.59 21L8.81998 21.89ZM8.81998 2.35999C7.22868 2.35999 5.70258 2.99215 4.57736 4.11737C3.45214 5.24259 2.81998 6.76869 2.81998 8.35999C2.81998 10.89 6.62998 16.12 8.81998 18.8C11 16.11 14.82 10.89 14.82 8.35999C14.82 6.76869 14.1878 5.24259 13.0626 4.11737C11.9374 2.99215 10.4113 2.35999 8.81998 2.35999Z" fill="#24DB8E"/>
<path d="M8.79998 12.32C8.00886 12.32 7.23549 12.0854 6.57769 11.6459C5.91989 11.2064 5.4072 10.5816 5.10445 9.85073C4.8017 9.11983 4.72251 8.31556 4.87685 7.53964C5.0312 6.76371 5.41214 6.05101 5.97155 5.4916C6.53096 4.93219 7.24369 4.55121 8.01962 4.39687C8.79554 4.24253 9.59981 4.32172 10.3307 4.62447C11.0616 4.92722 11.6863 5.43994 12.1258 6.09774C12.5654 6.75554 12.8 7.52891 12.8 8.32003C12.8 9.3809 12.3786 10.3983 11.6284 11.1485C10.8783 11.8986 9.86085 12.32 8.79998 12.32ZM8.79998 6.32003C8.40442 6.32003 8.01773 6.4373 7.68884 6.65707C7.35994 6.87683 7.10361 7.1892 6.95223 7.55465C6.80086 7.9201 6.76123 8.32227 6.8384 8.71023C6.91557 9.09819 7.10606 9.45451 7.38577 9.73422C7.66547 10.0139 8.02185 10.2044 8.40981 10.2816C8.79778 10.3587 9.19991 10.3191 9.56536 10.1677C9.93081 10.0164 10.2432 9.76007 10.4629 9.43118C10.6827 9.10228 10.8 8.71559 10.8 8.32003C10.8 7.7896 10.5893 7.28086 10.2142 6.90579C9.83912 6.53071 9.33041 6.32003 8.79998 6.32003Z" fill="#24DB8E"/>
</svg>
