<svg width="98" height="87" viewBox="0 0 98 87" fill="none" xmlns="http://www.w3.org/2000/svg">
<path d="M89.3562 14.8939C88.6407 14.2655 87.7052 13.9466 86.7548 14.0073C85.8045 14.068 84.917 14.5032 84.2873 15.2175L77.5646 22.9467L75.2998 20.3943C74.6657 19.6792 73.7736 19.2453 72.8196 19.188C71.8656 19.1307 70.9279 19.4547 70.2128 20.0887C69.4978 20.7228 69.0638 21.6149 69.0065 22.5689C68.9492 23.5229 69.2732 24.4605 69.9073 25.1756L74.9043 30.7838C75.2445 31.1608 75.6606 31.4614 76.1254 31.6658C76.5901 31.8703 77.0929 31.9741 77.6006 31.9702C78.1049 31.9645 78.6024 31.8527 79.0608 31.6421C79.5191 31.4315 79.928 31.1268 80.2609 30.7479L89.6438 19.9629C90.2766 19.252 90.6017 18.3192 90.5478 17.369C90.4939 16.4188 90.0654 15.5287 89.3562 14.8939Z" fill="#54be73"/>
<path d="M46.95 39.545C49.7941 39.545 52.5744 38.7016 54.9391 37.1215C57.3039 35.5414 59.147 33.2956 60.2354 30.668C61.3238 28.0404 61.6086 25.149 61.0537 22.3596C60.4989 19.5702 59.1293 17.0079 57.1182 14.9968C55.1072 12.9857 52.5449 11.6162 49.7554 11.0613C46.966 10.5065 44.0746 10.7912 41.447 11.8796C38.8194 12.968 36.5736 14.8111 34.9935 17.1759C33.4134 19.5407 32.57 22.3209 32.57 25.165C32.57 28.9788 34.0851 32.6364 36.7818 35.3332C39.4786 38.03 43.1362 39.545 46.95 39.545Z" fill="#54be73"/>
<path d="M68.52 75.495C69.4735 75.495 70.3879 75.1162 71.0621 74.4421C71.7363 73.7679 72.115 72.8535 72.115 71.9C72.115 65.2258 69.4637 58.825 64.7444 54.1057C60.025 49.3863 53.6242 46.735 46.95 46.735C40.2759 46.735 33.875 49.3863 29.1557 54.1057C24.4363 58.825 21.785 65.2258 21.785 71.9C21.785 72.8535 22.1638 73.7679 22.838 74.4421C23.5122 75.1162 24.4266 75.495 25.38 75.495" fill="#54be73"/>
<path d="M22.6253 25.7374L20.4227 23.0174L23.1427 20.8148C23.8641 20.2306 24.3239 19.3838 24.4209 18.4606C24.5179 17.5374 24.2443 16.6135 23.6601 15.8921C23.0759 15.1707 22.2291 14.711 21.3059 14.6139C20.3827 14.5169 19.4588 14.7906 18.7374 15.3748L16.0174 17.5774L13.8148 14.8574C13.2306 14.136 12.3838 13.6762 11.4607 13.5792C10.5375 13.4821 9.61358 13.7558 8.89218 14.34C8.17079 14.9241 7.71101 15.771 7.61398 16.6941C7.51695 17.6173 7.79062 18.5412 8.37479 19.2626L10.5774 21.9826L7.85741 24.1852C7.13601 24.7694 6.67623 25.6162 6.5792 26.5394C6.48217 27.4626 6.75584 28.3865 7.34002 29.1079C7.92419 29.8293 8.77101 30.289 9.69418 30.3861C10.6174 30.4831 11.5413 30.2094 12.2626 29.6253L14.9827 27.4226L17.1853 30.1426C17.7695 30.864 18.6163 31.3238 19.5394 31.4209C20.4626 31.5179 21.3865 31.2442 22.1079 30.66C22.8293 30.0759 23.2891 29.229 23.3861 28.3059C23.4831 27.3827 23.2095 26.4588 22.6253 25.7374Z" fill="#54be73"/>
</svg>
