<svg width="25" height="25" viewBox="0 0 25 25" fill="none" xmlns="http://www.w3.org/2000/svg">
<path d="M16.37 19.12H15.37C12.7178 19.12 10.1743 18.0664 8.29892 16.191C6.42356 14.3157 5.37 11.7722 5.37 9.12V8.12H7.37V9.12C7.37 11.2417 8.21284 13.2766 9.71313 14.7769C11.2134 16.2771 13.2483 17.12 15.37 17.12H16.37V19.12Z" fill="#24DB8E"/>
<path d="M7.37 10.12H6.37V8.11999H7.37C7.37 7.92999 7.37 7.62001 7.37 7.39001V2.84997C7.37 2.61997 7.37 2.30999 7.37 2.11999H3.37C3.10478 2.11999 2.85042 2.22536 2.66289 2.4129C2.47535 2.60043 2.37 2.85477 2.37 3.11999V7.11999H0.369995V3.11999C0.369995 2.32434 0.686063 1.56126 1.24867 0.998651C1.81128 0.436042 2.57435 0.119989 3.37 0.119989H7.37C7.6302 0.107933 7.89016 0.148654 8.1342 0.23974C8.37824 0.330826 8.60132 0.470421 8.78999 0.650018C9.03027 0.960483 9.20547 1.31619 9.30513 1.69592C9.40479 2.07564 9.42685 2.47154 9.37 2.85998V7.38C9.42685 7.76844 9.40479 8.16434 9.30513 8.54406C9.20547 8.92378 9.03027 9.2795 8.78999 9.58996C8.60132 9.76956 8.37824 9.90915 8.1342 10.0002C7.89016 10.0913 7.6302 10.132 7.37 10.12Z" fill="#24DB8E"/>
<path d="M21.37 24.12H17.37V22.12H21.37C21.6352 22.12 21.8896 22.0146 22.0771 21.8271C22.2647 21.6395 22.37 21.3852 22.37 21.12V17.12C22.18 17.12 21.86 17.12 21.64 17.12H17.09C16.87 17.12 16.56 17.12 16.37 17.12V18.12H14.37V17.12C14.3562 16.8596 14.3961 16.5991 14.4873 16.3548C14.5785 16.1105 14.719 15.8876 14.9 15.7C15.2093 15.4577 15.565 15.2812 15.945 15.1814C16.3251 15.0817 16.7216 15.0608 17.11 15.12H21.62C22.01 15.0629 22.4076 15.0848 22.7889 15.1845C23.1703 15.2841 23.5278 15.4594 23.84 15.7C24.0211 15.8876 24.1616 16.1105 24.2527 16.3548C24.3439 16.5991 24.3838 16.8596 24.37 17.12V21.12C24.37 21.9156 24.0539 22.6787 23.4913 23.2413C22.9287 23.8039 22.1657 24.12 21.37 24.12Z" fill="#24DB8E"/>
<path d="M20.37 24.12H17.37C12.8613 24.12 8.5373 22.3289 5.34918 19.1408C2.16106 15.9527 0.369995 11.6287 0.369995 7.12V4.12H2.37V7.12C2.37 11.0982 3.95034 14.9136 6.76338 17.7266C9.57643 20.5397 13.3917 22.12 17.37 22.12H20.37V24.12Z" fill="#24DB8E"/>
</svg>
