<svg xmlns="http://www.w3.org/2000/svg" width="92" height="90" viewBox="0 0 92 90">
    <path d="M-202,236a5,5,0,0,1,5-5,5,5,0,0,1,5,5,5,5,0,0,1-5,5A5,5,0,0,1-202,236Zm-20,0a5,5,0,0,1,5-5,5,5,0,0,1,5,5,5,5,0,0,1-5,5A5,5,0,0,1-222,236Zm-20,0a5,5,0,0,1,5-5,5,5,0,0,1,5,5,5,5,0,0,1-5,5A5,5,0,0,1-242,236Zm-20,0a5,5,0,0,1,5-5,5,5,0,0,1,5,5,5,5,0,0,1-5,5A5,5,0,0,1-262,236Zm-20,0a5,5,0,0,1,5-5,5,5,0,0,1,5,5,5,5,0,0,1-5,5A5,5,0,0,1-282,236Zm80-20a5,5,0,0,1,5-5,5,5,0,0,1,5,5,5,5,0,0,1-5,5A5,5,0,0,1-202,216Zm-20,0a5,5,0,0,1,5-5,5,5,0,0,1,5,5,5,5,0,0,1-5,5A5,5,0,0,1-222,216Zm-20,0a5,5,0,0,1,5-5,5,5,0,0,1,5,5,5,5,0,0,1-5,5A5,5,0,0,1-242,216Zm-20,0a5,5,0,0,1,5-5,5,5,0,0,1,5,5,5,5,0,0,1-5,5A5,5,0,0,1-262,216Zm-20,0a5,5,0,0,1,5-5,5,5,0,0,1,5,5,5,5,0,0,1-5,5A5,5,0,0,1-282,216Zm81-20a5,5,0,0,1,5-5,5,5,0,0,1,5,5,5,5,0,0,1-5,5A5,5,0,0,1-201,196Zm-21,0a5,5,0,0,1,5-5,5,5,0,0,1,5,5,5,5,0,0,1-5,5A5,5,0,0,1-222,196Zm-20,0a5,5,0,0,1,5-5,5,5,0,0,1,5,5,5,5,0,0,1-5,5A5,5,0,0,1-242,196Zm-20,0a5,5,0,0,1,5-5,5,5,0,0,1,5,5,5,5,0,0,1-5,5A5,5,0,0,1-262,196Zm-21,0a5,5,0,0,1,5-5,5,5,0,0,1,5,5,5,5,0,0,1-5,5A5,5,0,0,1-283,196Zm82-20a5,5,0,0,1,5-5,5,5,0,0,1,5,5,5,5,0,0,1-5,5A5,5,0,0,1-201,176Zm-21,0a5,5,0,0,1,5-5,5,5,0,0,1,5,5,5,5,0,0,1-5,5A5,5,0,0,1-222,176Zm-20,0a5,5,0,0,1,5-5,5,5,0,0,1,5,5,5,5,0,0,1-5,5A5,5,0,0,1-242,176Zm-20,0a5,5,0,0,1,5-5,5,5,0,0,1,5,5,5,5,0,0,1-5,5A5,5,0,0,1-262,176Zm-20,0a5,5,0,0,1,5-5,5,5,0,0,1,5,5,5,5,0,0,1-5,5A5,5,0,0,1-282,176Zm81-20a5,5,0,0,1,5-5,5,5,0,0,1,5,5,5,5,0,0,1-5,5A5,5,0,0,1-201,156Zm-21,0a5,5,0,0,1,5-5,5,5,0,0,1,5,5,5,5,0,0,1-5,5A5,5,0,0,1-222,156Zm-20,0a5,5,0,0,1,5-5,5,5,0,0,1,5,5,5,5,0,0,1-5,5A5,5,0,0,1-242,156Zm-20,0a5,5,0,0,1,5-5,5,5,0,0,1,5,5,5,5,0,0,1-5,5A5,5,0,0,1-262,156Zm-20,0a5,5,0,0,1,5-5,5,5,0,0,1,5,5,5,5,0,0,1-5,5A5,5,0,0,1-282,156Z" transform="translate(283 -151)"></path>
</svg>