<svg width="31" height="25" viewBox="0 0 31 25" fill="none" xmlns="http://www.w3.org/2000/svg">
<path d="M27.9262 3.81984L31 6.98388L25.5 6.5L25.2681 5.16326L25 4.5L28.4081 0.0644955L27.9262 3.81984Z" fill="#24DB8E"/>
<path d="M12.32 24.12C9.94661 24.12 7.6265 23.4162 5.65311 22.0976C3.67972 20.7791 2.14169 18.9049 1.23344 16.7122C0.325185 14.5195 0.0874919 12.1067 0.550515 9.77891C1.01354 7.45114 2.15646 5.31295 3.83469 3.63472C5.51292 1.95649 7.65109 0.8136 9.97886 0.350577C12.3066 -0.112446 14.7194 0.125195 16.9121 1.03345C19.1049 1.9417 20.979 3.47977 22.2976 5.45316C23.6162 7.42655 24.32 9.74663 24.32 12.12C24.32 15.3026 23.0557 18.3548 20.8053 20.6053C18.5548 22.8557 15.5026 24.12 12.32 24.12V24.12ZM12.32 2.12C10.3422 2.12 8.40875 2.70649 6.76426 3.8053C5.11977 4.90412 3.83803 6.46591 3.08115 8.29317C2.32428 10.1204 2.12627 12.1311 2.51212 14.0709C2.89798 16.0107 3.85035 17.7925 5.24888 19.1911C6.6474 20.5896 8.42925 21.542 10.3691 21.9279C12.3089 22.3137 14.3196 22.1157 16.1468 21.3588C17.9741 20.6019 19.5359 19.3202 20.6347 17.6757C21.7335 16.0312 22.32 14.0978 22.32 12.12C22.32 9.46784 21.2664 6.9243 19.391 5.04893C17.5157 3.17357 14.9721 2.12 12.32 2.12V2.12Z" fill="#24DB8E"/>
<path d="M12.32 20.12C10.7377 20.12 9.19099 19.6508 7.8754 18.7718C6.5598 17.8927 5.53443 16.6433 4.92892 15.1815C4.32342 13.7197 4.16498 12.1111 4.47366 10.5593C4.78235 9.00743 5.5443 7.58197 6.66312 6.46315C7.78194 5.34433 9.2074 4.5824 10.7592 4.27372C12.3111 3.96503 13.9196 4.12346 15.3814 4.72896C16.8432 5.33446 18.0927 6.35984 18.9717 7.67543C19.8508 8.99103 20.32 10.5377 20.32 12.12C20.32 14.2417 19.4771 16.2766 17.9768 17.7769C16.4765 19.2771 14.4417 20.12 12.32 20.12ZM12.32 6.12C11.1333 6.12 9.97324 6.4719 8.98654 7.13118C7.99985 7.79047 7.23083 8.72755 6.7767 9.8239C6.32258 10.9203 6.20376 12.1267 6.43527 13.2905C6.66678 14.4544 7.23819 15.5235 8.0773 16.3626C8.91642 17.2018 9.98556 17.7732 11.1494 18.0047C12.3133 18.2362 13.5197 18.1174 14.6161 17.6633C15.7124 17.2091 16.6495 16.4401 17.3088 15.4534C17.9681 14.4667 18.32 13.3067 18.32 12.12C18.32 10.5287 17.6878 9.00258 16.5626 7.87736C15.4374 6.75214 13.9113 6.12 12.32 6.12V6.12Z" fill="#24DB8E"/>
<path d="M12.32 16.12C11.5289 16.12 10.7555 15.8854 10.0977 15.4459C9.43994 15.0064 8.92722 14.3816 8.62447 13.6507C8.32172 12.9198 8.24253 12.1156 8.39687 11.3396C8.55121 10.5637 8.93219 9.85098 9.4916 9.29157C10.051 8.73216 10.7637 8.3512 11.5396 8.19686C12.3156 8.04251 13.1198 8.12173 13.8507 8.42448C14.5816 8.72723 15.2064 9.23992 15.6459 9.89771C16.0854 10.5555 16.32 11.3289 16.32 12.12C16.32 13.1809 15.8986 14.1983 15.1485 14.9484C14.3983 15.6986 13.3809 16.12 12.32 16.12ZM12.32 10.12C11.9245 10.12 11.5378 10.2373 11.2089 10.4571C10.88 10.6768 10.6236 10.9892 10.4723 11.3546C10.3209 11.7201 10.2813 12.1222 10.3584 12.5102C10.4356 12.8981 10.6261 13.2545 10.9058 13.5342C11.1855 13.8139 11.5419 14.0044 11.9298 14.0816C12.3178 14.1587 12.7199 14.1191 13.0854 13.9678C13.4508 13.8164 13.7632 13.56 13.9829 13.2311C14.2027 12.9022 14.32 12.5156 14.32 12.12C14.32 11.5896 14.1093 11.0809 13.7342 10.7058C13.3591 10.3307 12.8505 10.12 12.32 10.12Z" fill="#24DB8E"/>
<path d="M25.6324 4.26047L11.8988 10.9588C11.4024 11.2009 11.1963 11.7996 11.4384 12.2959C11.6805 12.7923 12.2791 12.9985 12.7755 12.7564L26.5091 6.05806C27.0055 5.81595 27.2116 5.21729 26.9695 4.7209C26.7274 4.22451 26.1288 4.01837 25.6324 4.26047Z" fill="#24DB8E"/>
</svg>
