<svg width="25" height="24" viewBox="0 0 25 24" fill="none" xmlns="http://www.w3.org/2000/svg">
<path d="M2.98999 19.62H1.98999C1.45956 19.62 0.950848 19.4093 0.575775 19.0342C0.200702 18.6591 -0.0100098 18.1504 -0.0100098 17.62V5.62C-0.0100098 5.08956 0.200702 4.58085 0.575775 4.20578C0.950848 3.83071 1.45956 3.62 1.98999 3.62H19.99C20.5204 3.62 21.0291 3.83071 21.4042 4.20578C21.7793 4.58085 21.99 5.08956 21.99 5.62V7.62H19.99V5.62H1.98999V17.62H2.98999V19.62Z" fill="#24DB8E"/>
<path d="M14.95 4.60999H12.95V2.60999H8.95001V4.60999H6.95001V0.609985H14.95V4.60999Z" fill="#24DB8E"/>
<path d="M4.95001 2.60999H2.95001V4.60999H4.95001V2.60999Z" fill="#24DB8E"/>
<path d="M18.95 2.60999H16.95V4.60999H18.95V2.60999Z" fill="#24DB8E"/>
<path d="M24.95 21.61H2.95001V23.61H24.95V21.61Z" fill="#24DB8E"/>
<path d="M10.95 22.61H8.95001V19.61H6.95001V22.61H4.95001V17.61H10.95V22.61Z" fill="#24DB8E"/>
<path d="M17.95 22.61H15.95V15.61H13.95V22.61H11.95V13.61H17.95V22.61Z" fill="#24DB8E"/>
<path d="M24.95 22.61H22.95V11.61H20.95V22.61H18.95V9.60999H24.95V22.61Z" fill="#24DB8E"/>
</svg>
