<svg width="22" height="25" viewBox="0 0 22 25" fill="none" xmlns="http://www.w3.org/2000/svg">
<path d="M12.5901 10.1602H10.5901V15.0702H12.5901V10.1602Z" fill="#24DB8E"/>
<path d="M12.5901 1.00977H10.5901V5.83976H12.5901V1.00977Z" fill="#24DB8E"/>
<path d="M14.6401 0.00976562H8.64014V2.00977H14.6401V0.00976562Z" fill="#24DB8E"/>
<path d="M3.71121 1.58407L0.132141 5.04033L1.52146 6.47901L5.10052 3.02275L3.71121 1.58407Z" fill="#24DB8E"/>
<path d="M18.3893 2.00001L21.9684 5.45627L20.5791 6.89495L17 3.43869L18.3893 2.00001Z" fill="#24DB8E"/>
<path d="M11.5901 24.1201C9.61229 24.1201 7.6789 23.5336 6.03441 22.4348C4.38991 21.336 3.10818 19.7742 2.3513 17.9469C1.59442 16.1197 1.39639 14.109 1.78224 12.1692C2.16809 10.2294 3.1205 8.44757 4.51902 7.04904C5.91755 5.65052 7.69939 4.69812 9.6392 4.31227C11.579 3.92642 13.5897 4.12444 15.4169 4.88132C17.2442 5.63819 18.806 6.91992 19.9048 8.56441C21.0036 10.2089 21.5901 12.1423 21.5901 14.1201C21.5744 16.7674 20.5157 19.3018 18.6438 21.1738C16.7718 23.0457 14.2374 24.1044 11.5901 24.1201V24.1201ZM11.5901 6.03012C10.01 6.03015 8.46526 6.49811 7.15077 7.37497C5.83628 8.25183 4.8109 9.49832 4.20396 10.9572C3.59702 12.4161 3.43569 14.0221 3.74034 15.5725C4.04499 17.123 4.80199 18.5485 5.91581 19.6693C7.02964 20.7901 8.4504 21.5559 9.99894 21.8703C11.5475 22.1846 13.1544 22.0333 14.6171 21.4354C16.0797 20.8376 17.3326 19.82 18.2176 18.511C19.1026 17.202 19.5802 15.6602 19.5901 14.0801C19.5875 11.9546 18.7454 9.91607 17.2471 8.4084C15.7488 6.90073 13.7156 6.04594 11.5901 6.03012V6.03012Z" fill="#24DB8E"/>
<path d="M11.5901 16.0698C12.4185 16.0698 13.0901 15.3983 13.0901 14.5698C13.0901 13.7414 12.4185 13.0698 11.5901 13.0698C10.7617 13.0698 10.0901 13.7414 10.0901 14.5698C10.0901 15.3983 10.7617 16.0698 11.5901 16.0698Z" fill="#24DB8E"/>
<path d="M18.9364 3.34025L15.9382 6.33838L17.3524 7.75259L20.3506 4.75447L18.9364 3.34025Z" fill="#24DB8E"/>
<path d="M3.35246 3.34025L6.35059 6.33838L4.93637 7.75259L1.93825 4.75447L3.35246 3.34025Z" fill="#24DB8E"/>
<path d="M6 14H3V16H6V14Z" fill="#24DB8E"/>
<path d="M20 14H17V16H20V14Z" fill="#24DB8E"/>
<path d="M10.6 20V23H12.6V20H10.6Z" fill="#24DB8E"/>
<path d="M10.6 5V8H12.6V5H10.6Z" fill="#24DB8E"/>
</svg>
